<svg width="132" height="148" viewBox="0 0 132 148" fill="none" xmlns="http://www.w3.org/2000/svg">
<path d="M107.822 136.759C82.771 152.275 48.9491 151.053 17.5088 137.24C13.9572 135.679 13.9719 130.807 17.4454 129.077L27.0935 124.273C32.1077 121.775 33.7897 115.537 31.803 110.324C23.1494 87.6263 31.2521 61.4785 52.4081 48.3747C76.5307 33.4342 108.49 41.1079 123.794 65.5145C139.097 89.921 131.945 121.818 107.822 136.758V136.759Z" fill="white"/>
<path d="M31.8023 110.324C23.1488 87.6265 31.2514 61.4788 52.4075 48.3753C76.5301 33.4347 108.49 41.1083 123.793 65.515C124.592 66.7899 125.316 68.0895 125.994 69.4021C126.196 67.3453 126.302 65.2604 126.302 63.1508C126.302 28.2734 98.0281 0 63.1509 0C28.2737 0 0 28.2734 0 63.1508C0 86.7469 12.9435 107.318 32.1158 118.158C32.8626 115.673 32.7751 112.877 31.8024 110.324H31.8023Z" fill="#21ACC0"/>
<path d="M125.995 69.4017C122.855 101.344 95.9191 126.301 63.1516 126.301C51.8705 126.301 41.2824 123.34 32.1164 118.157C31.338 120.747 29.6526 122.998 27.0935 124.273L17.4455 129.077C13.9719 130.807 13.9572 135.679 17.5088 137.24C48.9492 151.053 82.771 152.275 107.822 136.759C130.685 122.599 138.289 93.2116 125.995 69.4017V69.4017Z" fill="#D98890"/>
<path d="M125.995 69.4016C125.317 68.089 124.593 66.7895 123.794 65.5145C108.49 41.1078 76.5307 33.4342 52.4081 48.3748C31.252 61.4783 23.1494 87.626 31.8029 110.323C32.7757 112.876 32.8632 115.673 32.1164 118.157C41.2824 123.34 51.8705 126.301 63.1515 126.301C95.919 126.301 122.855 101.344 125.995 69.4016H125.995Z" fill="#2B4A51"/>
<path d="M66.8009 25.299C73.2975 25.299 78.8414 26.9356 83.4323 30.2086C87.1137 32.8182 88.9545 35.7374 88.9545 38.9662C88.9545 41.2662 88.1749 43.3008 86.6157 45.07C85.0998 46.8393 83.3457 47.7239 81.3534 47.7239C80.3573 47.7239 79.491 47.6133 78.7547 47.3922C78.0618 47.1268 76.1994 46.3085 73.1676 44.9374C70.1792 43.6104 67.6888 42.947 65.6965 42.947C62.2749 42.947 60.5642 44.1191 60.5642 46.4633C60.5642 47.746 61.1272 48.7854 62.2533 49.5816C63.3794 50.3335 66.2162 51.6162 70.7639 53.4296C75.0517 55.1546 78.17 56.5921 80.119 57.7421C82.1113 58.8921 83.9304 60.3517 85.5762 62.1209C88.8245 65.5267 90.4487 69.6622 90.4487 74.5276C90.4487 77.5795 89.7774 80.5871 88.4347 83.5506C87.1354 86.4698 85.3597 88.9246 83.1075 90.9149C78.5165 94.8957 72.3664 96.8861 64.657 96.8861C57.4674 96.8861 51.1007 95.0947 45.5569 91.5121C41.6157 88.9909 39.645 85.9612 39.645 82.4227C39.645 80.1227 40.4679 78.066 42.1137 76.2525C43.8029 74.4391 45.6869 73.5324 47.7658 73.5324C48.9352 73.5324 49.9313 73.6872 50.7542 73.9968C51.5771 74.2622 53.9376 75.3016 57.8356 77.115C60.954 78.5304 63.5743 79.2381 65.6965 79.2381C67.2557 79.2381 68.5767 78.7958 69.6595 77.9112C70.7855 77.0266 71.3486 75.9429 71.3486 74.6602C71.3486 72.9353 70.2225 71.542 67.9703 70.4805C66.7576 69.9497 63.5743 68.6891 58.4203 66.6988C52.3134 64.3103 47.9824 61.6344 45.427 58.6709C42.915 55.6633 41.659 51.7489 41.659 46.9277C41.659 40.7355 44.0194 35.6047 48.7403 31.5355C53.5045 27.4221 59.5247 25.3433 66.8009 25.299H66.8009Z" fill="white"/>
</svg>
