<svg width="449" height="100" viewBox="0 0 449 100" fill="none" xmlns="http://www.w3.org/2000/svg">
<path d="M17.5204 37.8096C21.7118 37.8096 25.2885 38.8447 28.2506 40.915C30.6257 42.5656 31.8133 44.4119 31.8133 46.4542C31.8133 47.9089 31.3103 49.1957 30.3043 50.3148C29.3263 51.4339 28.1946 51.9934 26.9093 51.9934C26.2665 51.9934 25.7078 51.9234 25.2327 51.7835C24.7855 51.6157 23.5841 51.0981 21.628 50.231C19.6999 49.3916 18.0932 48.972 16.8078 48.972C14.6004 48.972 13.4965 49.7134 13.4965 51.1961C13.4965 52.0073 13.8599 52.6649 14.5864 53.1684C15.3128 53.6439 17.1432 54.4552 20.0771 55.6023C22.8436 56.6934 24.8554 57.6026 26.1129 58.33C27.3982 59.0573 28.5719 59.9804 29.6337 61.0995C31.7294 63.2537 32.7774 65.8693 32.7774 68.9468C32.7774 70.877 32.3442 72.7794 31.4779 74.6538C30.6397 76.5003 29.494 78.0529 28.041 79.3118C25.079 81.8296 21.1111 83.0886 16.1372 83.0886C11.4986 83.0886 7.39096 81.9555 3.81424 79.6895C1.27142 78.0949 0 76.1785 0 73.9405C0 72.4856 0.530923 71.1848 1.59276 70.0379C2.68254 68.8908 3.89806 68.3172 5.23935 68.3172C5.99382 68.3172 6.63651 68.4153 7.16742 68.611C7.69835 68.7789 9.22125 69.4363 11.7361 70.5834C13.748 71.4786 15.4386 71.9262 16.8078 71.9262C17.8138 71.9262 18.666 71.6465 19.3647 71.0869C20.0911 70.5274 20.4544 69.842 20.4544 69.0307C20.4544 67.9396 19.7279 67.0584 18.2748 66.387C17.4924 66.0512 15.4386 65.2539 12.1134 63.995C8.17339 62.4844 5.37908 60.7917 3.73043 58.9174C2.10972 57.015 1.29937 54.5392 1.29937 51.4898C1.29937 47.5731 2.82227 44.3281 5.86808 41.7543C8.94182 39.1525 12.8259 37.8376 17.5204 37.8096H17.5204Z" fill="#21ACC0"/>
<path d="M51.7852 42.8872C53.3221 41.1807 54.7752 39.9918 56.1444 39.3204C58.1842 38.3132 60.4616 37.8096 62.9764 37.8096C67.5032 37.8096 71.4432 39.4322 74.7964 42.6775C79.3791 47.1536 81.6704 52.9446 81.6704 60.0505C81.6704 66.5968 79.7703 72.15 75.97 76.7101C72.3934 80.9623 67.8106 83.0886 62.222 83.0886C60.266 83.0886 58.5615 82.8228 57.1084 82.2913C55.6833 81.7596 54.0485 80.7946 52.2043 79.3957V91.6071C52.2043 93.9852 51.925 95.7337 51.3661 96.8526C50.891 97.7759 50.1365 98.5312 49.1026 99.1188C48.0967 99.7062 47.0348 99.9999 45.9171 99.9999C44.7993 99.9999 43.7236 99.7062 42.6896 99.1188C41.6838 98.5312 40.9433 97.7759 40.4682 96.8526C39.9093 95.7337 39.6299 93.9852 39.6299 91.6071V45.5729C39.6299 43.251 40.1608 41.4325 41.2227 40.1177C42.3125 38.7748 43.8074 38.1034 45.7076 38.1034C47.1886 38.1034 48.3762 38.4671 49.2703 39.1945C50.1645 39.8938 51.0027 41.1247 51.7852 42.8872V42.8872ZM60.3358 49.5595C57.9606 49.5595 56.0325 50.4407 54.5516 52.2032C52.7352 54.3293 51.8271 57.029 51.8271 60.3022C51.8271 63.6033 52.6096 66.2751 54.1743 68.3172C55.7392 70.3315 57.793 71.3387 60.3358 71.3387C62.9345 71.3387 65.0164 70.2616 66.5811 68.1075C68.2298 65.8693 69.054 63.3097 69.054 60.4281C69.054 57.5187 68.2298 54.9728 66.5811 52.7907C64.9884 50.6645 62.9067 49.5874 60.3358 49.5595V49.5595Z" fill="#21ACC0"/>
<path d="M100.258 42.5934C102.019 40.831 103.541 39.6001 104.827 38.9007C106.112 38.1733 107.481 37.8096 108.934 37.8096C110.723 37.8096 112.246 38.453 113.503 39.74C114.761 40.9988 115.389 42.5376 115.389 44.3559C115.389 45.8667 114.956 47.0137 114.09 47.797C113.252 48.5523 111.547 49.3356 108.976 50.1469C105.539 51.238 103.22 52.3571 102.019 53.504C100.845 54.6511 100.258 56.3296 100.258 58.5397V74.402C100.258 76.8079 99.9787 78.5704 99.4199 79.6895C98.9447 80.6127 98.1903 81.368 97.1564 81.9555C96.1504 82.5431 95.0886 82.8367 93.9708 82.8367C92.8531 82.8367 91.7774 82.5431 90.7434 81.9555C89.7375 81.368 88.9971 80.6127 88.5219 79.6895C87.9631 78.5704 87.6837 76.8079 87.6837 74.402V45.3211C87.6837 43.1111 88.2006 41.4185 89.2346 40.2435C90.4919 38.8167 92.0707 38.1034 93.9708 38.1034C96.7932 38.1034 98.8889 39.6001 100.258 42.5934V42.5934Z" fill="#21ACC0"/>
<path d="M129.87 64.6671C130.792 67.185 132.063 69.0594 133.684 70.2904C135.333 71.4933 137.386 72.0947 139.845 72.0947C141.354 72.0947 142.64 71.927 143.702 71.5912C144.763 71.2276 146.943 70.2344 150.24 68.6117C151.107 68.1921 152.043 67.9823 153.048 67.9823C154.558 67.9823 155.815 68.6258 156.821 69.9126C157.66 71.0037 158.078 72.0807 158.078 73.1438C158.078 75.5218 156.387 77.676 153.007 79.6062C148.927 81.9282 144.331 83.0893 139.216 83.0893C131.532 83.0893 125.483 80.4175 121.068 75.0742C117.882 71.2135 116.289 66.5695 116.289 61.1423C116.289 53.7845 118.65 47.9096 123.373 43.5175C127.453 39.7407 132.287 37.8524 137.875 37.8524C142.765 37.8524 147.111 39.3629 150.91 42.3844C153.342 44.3426 155.27 46.8746 156.696 49.9799C158.12 53.0572 158.832 56.2884 158.832 59.6735C158.832 63.0026 157.003 64.6671 153.342 64.6671H129.87L129.87 64.6671ZM146.426 56.0646C145.895 53.9944 145.28 52.4557 144.581 51.4486C143.045 49.2665 140.922 48.1754 138.21 48.1754C136.087 48.1754 134.313 48.8188 132.888 50.1058C131.462 51.3646 130.303 53.3509 129.409 56.0646H146.426H146.426Z" fill="#21ACC0"/>
<path d="M176.081 64.6671C177.003 67.185 178.274 69.0594 179.895 70.2904C181.543 71.4933 183.598 72.0947 186.056 72.0947C187.565 72.0947 188.851 71.927 189.913 71.5912C190.974 71.2276 193.154 70.2344 196.451 68.6117C197.318 68.1921 198.254 67.9823 199.26 67.9823C200.769 67.9823 202.026 68.6258 203.032 69.9126C203.871 71.0037 204.29 72.0807 204.29 73.1438C204.29 75.5218 202.599 77.676 199.218 79.6062C195.139 81.9282 190.541 83.0893 185.427 83.0893C177.744 83.0893 171.693 80.4175 167.279 75.0742C164.093 71.2135 162.501 66.5695 162.501 61.1423C162.501 53.7845 164.862 47.9096 169.584 43.5175C173.664 39.7407 178.498 37.8524 184.086 37.8524C188.976 37.8524 193.322 39.3629 197.122 42.3844C199.553 44.3426 201.481 46.8746 202.907 49.9799C204.331 53.0572 205.044 56.2884 205.044 59.6735C205.044 63.0026 203.214 64.6671 199.553 64.6671H176.081L176.081 64.6671ZM192.637 56.0646C192.107 53.9944 191.491 52.4557 190.793 51.4486C189.256 49.2665 187.132 48.1754 184.422 48.1754C182.299 48.1754 180.524 48.8188 179.098 50.1058C177.674 51.3646 176.515 53.3509 175.619 56.0646H192.637H192.637Z" fill="#21ACC0"/>
<path d="M223.548 61.5611V74.4019C223.548 76.8078 223.268 78.5703 222.71 79.6894C222.234 80.6126 221.48 81.3679 220.446 81.9555C219.441 82.543 218.378 82.8366 217.261 82.8366C216.143 82.8366 215.068 82.543 214.034 81.9555C213.027 81.3679 212.286 80.6126 211.812 79.6894C211.252 78.5704 210.974 76.8079 210.974 74.4019V27.6124C210.974 25.2344 211.252 23.4859 211.812 22.3669C212.286 21.4437 213.027 20.6883 214.034 20.1009C215.068 19.5133 216.143 19.2196 217.261 19.2196C218.378 19.2196 219.441 19.5133 220.446 20.1009C221.48 20.6883 222.234 21.4437 222.71 22.3669C223.268 23.4859 223.548 25.2344 223.548 27.6124V53.0004L235.116 41.1247C237.268 38.9146 239.195 37.8096 240.9 37.8096C242.606 37.8096 244.058 38.425 245.259 39.6559C246.462 40.8589 247.062 42.3416 247.062 44.1041C247.062 45.7267 245.93 47.6151 243.667 49.7692L235.787 57.3227L246.81 71.0449C248.627 73.2829 249.535 75.1434 249.535 76.6261C249.535 78.3326 248.907 79.8013 247.649 81.0323C246.392 82.2632 244.882 82.8786 243.121 82.8786C241.977 82.8786 240.985 82.5989 240.146 82.0393C239.307 81.4799 238.26 80.4029 237.002 78.8081L223.548 61.5611V61.5611Z" fill="#21ACC0"/>
<path d="M293.481 46.5386V65.2544C293.481 69.5347 292.462 73.0038 290.422 75.6615C288.689 77.8995 286.454 79.662 283.716 80.9488C280.642 82.4037 277.372 83.1309 273.908 83.1309C269.045 83.1309 264.784 81.8301 261.123 79.2283C258.748 77.5498 257.015 75.6055 255.926 73.3954C254.864 71.1573 254.333 68.4436 254.333 65.2544V46.5386C254.333 44.1607 254.612 42.3982 255.171 41.2511C255.646 40.3279 256.387 39.5726 257.392 38.9851C258.399 38.3977 259.475 38.1039 260.621 38.1039C261.738 38.1039 262.801 38.3977 263.806 38.9851C264.84 39.5726 265.594 40.3279 266.07 41.2511C266.628 42.3702 266.908 44.1326 266.908 46.5386V63.7018C266.908 65.0166 267.047 66.0657 267.327 66.849C267.634 67.6323 268.164 68.3877 268.92 69.115C270.289 70.4579 271.952 71.1293 273.908 71.1293C275.863 71.1293 277.526 70.4579 278.895 69.115C280.237 67.8282 280.908 66.0237 280.908 63.7018V46.5386C280.908 44.1327 281.186 42.3702 281.745 41.2511C282.22 40.3279 282.961 39.5726 283.966 38.9851C285 38.3977 286.076 38.1039 287.195 38.1039C288.312 38.1039 289.373 38.3977 290.38 38.9851C291.414 39.5726 292.168 40.3279 292.644 41.2511C293.202 42.3702 293.481 44.1326 293.481 46.5386L293.481 46.5386Z" fill="#21ACC0"/>
<path d="M340.95 46.5386V65.2544C340.95 69.5347 339.93 73.0038 337.891 75.6615C336.158 77.8995 333.922 79.662 331.183 80.9488C328.11 82.4037 324.841 83.1309 321.375 83.1309C316.514 83.1309 312.252 81.8301 308.592 79.2283C306.217 77.5498 304.484 75.6055 303.395 73.3954C302.333 71.1573 301.802 68.4436 301.802 65.2544V46.5386C301.802 44.1607 302.081 42.3982 302.64 41.2511C303.115 40.3279 303.855 39.5726 304.861 38.9851C305.867 38.3977 306.944 38.1039 308.088 38.1039C309.207 38.1039 310.268 38.3977 311.275 38.9851C312.308 39.5726 313.063 40.3279 313.538 41.2511C314.097 42.3702 314.376 44.1326 314.376 46.5386V63.7018C314.376 65.0166 314.516 66.0657 314.796 66.849C315.103 67.6323 315.633 68.3877 316.388 69.115C317.758 70.4579 319.42 71.1293 321.375 71.1293C323.331 71.1293 324.994 70.4579 326.363 69.115C327.704 67.8282 328.376 66.0237 328.376 63.7018V46.5386C328.376 44.1327 328.655 42.3702 329.214 41.2511C329.689 40.3279 330.429 39.5726 331.435 38.9851C332.469 38.3977 333.545 38.1039 334.662 38.1039C335.781 38.1039 336.842 38.3977 337.848 38.9851C338.882 39.5726 339.637 40.3279 340.112 41.2511C340.671 42.3702 340.95 44.1326 340.95 46.5386V46.5386Z" fill="#21ACC0"/>
<path d="M361.842 42.5934C363.603 40.831 365.126 39.6001 366.412 38.9007C367.696 38.1733 369.066 37.8096 370.52 37.8096C372.307 37.8096 373.83 38.453 375.088 39.74C376.345 40.9988 376.974 42.5376 376.974 44.3559C376.974 45.8667 376.54 47.0137 375.675 47.797C374.836 48.5523 373.131 49.3356 370.561 50.1469C367.124 51.238 364.804 52.3571 363.603 53.504C362.429 54.6511 361.842 56.3296 361.842 58.5397V74.402C361.842 76.8079 361.564 78.5704 361.005 79.6895C360.53 80.6127 359.774 81.368 358.74 81.9555C357.735 82.5431 356.674 82.8367 355.555 82.8367C354.438 82.8367 353.362 82.5431 352.328 81.9555C351.322 81.368 350.582 80.6127 350.106 79.6895C349.548 78.5704 349.268 76.8079 349.268 74.402V45.3211C349.268 43.1111 349.785 41.4185 350.819 40.2435C352.076 38.8167 353.655 38.1034 355.555 38.1034C358.378 38.1034 360.473 39.6001 361.842 42.5934V42.5934Z" fill="#21ACC0"/>
<path d="M445.178 34.9227C443.599 50.9977 430.045 63.5581 413.555 63.5581C407.876 63.5581 402.549 62.0611 397.936 59.4514C397.545 60.7577 396.7 61.8947 395.41 62.5372L390.555 64.955C388.807 65.8253 388.799 68.2772 390.587 69.0629C406.408 76.0135 423.428 76.6284 436.034 68.8204C447.54 61.6943 451.366 46.9047 445.178 34.9227V34.9227Z" fill="#D98890"/>
<path d="M397.779 55.5174C393.425 44.0957 397.502 30.9376 408.148 24.3434C420.287 16.825 436.37 20.6866 444.071 32.9685C444.473 33.6095 444.837 34.2627 445.177 34.9224C445.279 33.8881 445.333 32.8398 445.333 31.7789C445.333 14.2278 431.106 0 413.554 0C396.003 0 381.776 14.2278 381.776 31.7789C381.776 43.6508 388.29 53.9951 397.935 59.4511C398.309 58.2026 398.268 56.7995 397.779 55.5174V55.5174Z" fill="#21ACC0"/>
<path d="M445.178 34.9219C444.837 34.2622 444.473 33.609 444.071 32.968C436.37 20.6862 420.287 16.8245 408.148 24.3429C397.502 30.9371 393.425 44.0952 397.779 55.5169C398.268 56.799 398.309 58.2021 397.935 59.4506C402.549 62.0604 407.876 63.5573 413.555 63.5573C430.045 63.5573 443.599 50.997 445.178 34.9219V34.9219Z" fill="#2B4A51"/>
<path d="M396.058 40.5643C396.875 40.5643 397.567 40.8768 398.136 41.5017C398.624 42.0472 398.868 42.6835 398.868 43.4107C398.868 44.2629 398.556 44.9731 397.932 45.5412C397.386 46.0298 396.751 46.2741 396.024 46.2741C395.172 46.2741 394.463 45.9616 393.896 45.3367C393.407 44.7912 393.163 44.1436 393.163 43.3937C393.163 42.6097 393.441 41.945 393.997 41.3995C394.565 40.8428 395.252 40.5643 396.058 40.5643V40.5643Z" fill="white"/>
<path d="M407.127 29.5541C407.887 28.8497 408.614 28.3611 409.307 28.0884C410.01 27.8043 410.861 27.6624 411.86 27.6624C413.643 27.6624 415.119 28.1792 416.289 29.2132C416.981 29.8155 417.463 30.4802 417.735 31.2074C418.008 31.9233 418.145 32.8947 418.145 34.1219V42.5075C418.145 43.4846 418.031 44.2006 417.803 44.655C417.622 45.0301 417.321 45.3368 416.901 45.5754C416.481 45.814 416.044 45.9333 415.59 45.9333C415.136 45.9333 414.698 45.814 414.278 45.5754C413.87 45.3368 413.57 45.0301 413.376 44.655C413.149 44.2006 413.036 43.4846 413.036 42.5075V35.3321C413.036 34.3662 412.792 33.5992 412.303 33.0311C411.747 32.3948 411.032 32.0766 410.158 32.0766C409.34 32.0766 408.653 32.3721 408.097 32.9629C407.54 33.5425 407.263 34.2639 407.263 35.1275V42.5075C407.263 43.4846 407.149 44.2006 406.922 44.655C406.729 45.0301 406.422 45.3368 406.003 45.5753C405.594 45.814 405.163 45.9333 404.709 45.9333C404.254 45.9333 403.818 45.814 403.397 45.5753C402.988 45.3368 402.688 45.0301 402.494 44.655C402.267 44.2006 402.154 43.4846 402.154 42.5075V30.7813C402.154 29.8382 402.393 29.1053 402.869 28.5827C403.368 28.0373 403.999 27.7645 404.76 27.7645C405.86 27.7645 406.65 28.3611 407.127 29.5541L407.127 29.5541Z" fill="white"/>
<path d="M427.852 20.3297V42.5069C427.852 43.4841 427.739 44.2 427.512 44.6544C427.319 45.0295 427.012 45.3362 426.593 45.5748C426.183 45.8135 425.752 45.9327 425.299 45.9327C424.844 45.9327 424.407 45.8135 423.987 45.5748C423.578 45.3362 423.277 45.0295 423.084 44.6544C422.857 44.2 422.744 43.4841 422.744 42.5069V20.3297C422.744 19.3639 422.857 18.6537 423.084 18.1993C423.277 17.8242 423.578 17.5175 423.987 17.2789C424.407 17.0402 424.844 16.921 425.299 16.921C425.752 16.921 426.183 17.0402 426.593 17.2789C427.012 17.5175 427.319 17.8242 427.512 18.1993C427.739 18.6537 427.852 19.3639 427.852 20.3297Z" fill="white"/>
</svg>
