<svg width="69" height="71" viewBox="0 0 69 71" fill="none" xmlns="http://www.w3.org/2000/svg">
<path d="M68.2855 49.1073C67.2289 47.538 64.6957 48.1376 63.2865 48.745C60.1058 50.1166 56.8744 51.2094 53.6239 52.392C53.1317 52.5712 52.6385 52.6684 52.1439 52.7782C52.3539 52.4281 52.5218 52.0502 52.6297 51.6396C53.2005 49.4657 52.5028 47.6083 50.3744 46.7382C47.8251 45.6967 45.2484 47.0912 42.6693 47.2138C39.8744 47.3456 36.576 46.4648 34.2294 44.9457C31.8358 43.3964 29.2713 42.9838 26.4955 42.5585C24.9491 42.3212 22.9574 41.8959 21.4164 42.5214C21.266 41.5527 21.0882 40.5863 20.9896 39.6132C20.8451 36.7797 18.827 36.5575 16.4256 36.5082C13.7889 36.454 10.5672 37.0614 8.15904 38.2162C5.43687 39.5219 6.16783 42.1977 6.37486 44.6933C6.65172 48.0297 7.09166 51.2875 7.02476 54.6362C6.99058 56.3515 7.14048 58.0585 7.21421 59.7709C7.29624 61.6786 7.22106 63.582 7.45445 65.4819C7.58775 66.5697 7.63414 67.975 8.24937 68.9203C8.91587 69.9447 10.3563 70.4247 11.4925 70.6933C12.7757 70.9965 14.0248 70.8671 15.2919 70.5771C16.8656 70.2162 18.4784 69.5756 19.951 68.9452C21.7718 68.1659 22.2323 66.726 22.2831 65.0937C24.8592 65.5409 27.3895 66.1933 30.0052 66.5068C32.9964 66.8656 35.9862 67.2367 38.9886 67.4853C40.326 67.5961 41.6566 67.3256 42.9999 67.3256C44.2342 67.3256 45.5082 67.2821 46.6918 66.8993C49.1947 66.0893 51.5379 64.5971 53.7074 63.1405C55.9544 61.6318 58.4339 60.5195 60.7494 59.1039C61.6976 58.5243 62.8524 58.0741 63.681 57.3134C64.5897 56.4789 65.3802 55.6469 66.3495 54.8564C67.6546 53.7924 69.4105 50.7778 68.2855 49.1073Z" fill="#D8FAFF"/>
<path d="M33.477 27.209L38.9335 27.3086C38.8832 29.8706 38.8066 32.3711 38.7055 34.772C38.6396 36.3398 39.2255 37.2944 39.7289 37.8193C40.3764 38.4951 41.2641 38.8672 42.2279 38.8672C44.8114 38.8672 47.662 36.0508 47.7738 33.3882C47.8515 31.5435 47.9145 29.5903 47.9638 27.4731C47.9638 27.4731 54.9296 27.5991 54.9301 27.5991C57.6059 27.5991 58.8417 25.7676 58.8568 24.0664C58.8808 21.4229 56.0277 18.5752 53.3075 18.5264L48.0775 18.4307C48.0775 15.8086 48.0492 13.251 47.9931 10.7983C47.932 8.09717 46.0658 6.86719 44.3578 6.86719C43.1015 6.86719 41.748 7.51514 40.6439 8.64453C39.9828 9.3208 38.8803 10.7261 38.9213 12.5356C38.9618 14.3252 38.9867 16.2173 38.9955 18.2646L31.8539 18.1357C29.1771 18.1357 27.9413 19.9663 27.9257 21.668C27.9018 24.3105 30.7548 27.1592 33.477 27.209Z" fill="#D8FAFF"/>
<path d="M62.2855 43.1073C61.2289 41.538 58.6957 42.1376 57.2865 42.745C54.1058 44.1166 50.8744 45.2094 47.6239 46.392C47.1317 46.5712 46.6385 46.6684 46.1439 46.7782C46.3539 46.4281 46.5218 46.0502 46.6297 45.6396C47.2005 43.4657 46.5028 41.6083 44.3744 40.7382C41.8251 39.6967 39.2484 41.0912 36.6693 41.2138C33.8744 41.3456 30.576 40.4648 28.2294 38.9457C25.8358 37.3964 23.2713 36.9838 20.4955 36.5585C18.9491 36.3212 16.9574 35.8959 15.4164 36.5214C15.266 35.5527 15.0882 34.5863 14.9896 33.6132C14.8451 30.7797 12.827 30.5575 10.4256 30.5082C7.78892 30.454 4.56724 31.0614 2.15904 32.2162C-0.563132 33.5219 0.167828 36.1977 0.374858 38.6933C0.651718 42.0297 1.09166 45.2875 1.02476 48.6362C0.99058 50.3515 1.14048 52.0585 1.21421 53.7709C1.29624 55.6786 1.22106 57.582 1.45445 59.4819C1.58775 60.5697 1.63414 61.975 2.24937 62.9203C2.91587 63.9447 4.3563 64.4247 5.49253 64.6933C6.77573 64.9965 8.02476 64.8671 9.29185 64.5771C10.8656 64.2162 12.4784 63.5756 13.951 62.9452C15.7718 62.1659 16.2323 60.726 16.2831 59.0937C18.8592 59.5409 21.3895 60.1933 24.0052 60.5068C26.9964 60.8656 29.9862 61.2367 32.9886 61.4853C34.326 61.5961 35.6566 61.3256 36.9999 61.3256C38.2342 61.3256 39.5082 61.2821 40.6918 60.8993C43.1947 60.0893 45.5379 58.5971 47.7074 57.1405C49.9544 55.6318 52.4339 54.5195 54.7494 53.1039C55.6976 52.5243 56.8524 52.0741 57.681 51.3134C58.5897 50.4789 59.3802 49.6469 60.3495 48.8564C61.6546 47.7924 63.4105 44.7778 62.2855 43.1073ZM12.0545 60.5566C10.744 60.9853 9.60631 61.6347 8.22984 61.9101C7.08726 62.1386 5.22496 62.1156 4.56578 61.082C4.27476 60.6244 4.27232 59.3163 4.22154 58.829C4.13072 57.956 4.10972 57.0771 4.09849 56.2001C4.07847 54.5727 4.00181 52.9555 3.9232 51.329C3.85045 49.8193 3.90562 48.3324 3.92759 46.8241C3.95054 45.2377 3.66149 43.726 3.51158 42.1528C3.36265 40.5917 3.26646 39.0234 3.14732 37.4609C3.04673 36.1352 2.49644 35.0336 4.07164 34.5287C5.14293 34.1855 12.0892 32.4687 12.1473 33.6132C12.3187 35.3031 12.7503 36.9784 12.8265 38.6747C12.8939 40.1747 12.6571 41.6777 12.5389 43.1698C12.2894 46.3285 12.5868 49.3412 12.8998 52.4833C13.0594 54.0859 13.3138 55.769 13.347 57.3715C13.3583 57.8984 13.3939 58.4662 13.391 58.9936C13.3837 60.1655 13.0912 60.2167 12.0545 60.5566ZM59.0536 46.1054C58.3568 47.1137 57.0238 47.7792 56.1961 48.7123C55.2894 49.7348 53.9261 50.2817 52.7621 50.9945C50.2259 52.5468 47.6014 53.8539 45.0931 55.4521C43.7606 56.3012 42.3939 57.0946 40.952 57.7455C39.3519 58.4677 37.9032 58.414 36.1937 58.477C34.7997 58.5278 33.5257 58.6884 32.1297 58.5556C30.3465 58.3862 28.5682 58.2099 26.7899 57.996C24.8299 57.7597 22.8573 57.5741 20.911 57.2377C19.305 56.9604 17.7474 56.4716 16.1395 56.2109C15.8329 52.6278 15.1317 49.0419 15.2455 45.4296C15.3056 43.5263 15.5985 41.6366 15.6674 39.7362C15.8632 39.6679 16.0551 39.5488 16.2308 39.3544C16.8046 38.7201 18.413 39.0859 19.0834 39.1845C20.1449 39.3412 21.2328 39.4609 22.2885 39.6469C24.307 40.0033 25.8036 40.9086 27.5516 41.8573C30.6639 43.5468 34.7118 44.4462 38.2255 43.8862C39.5936 43.6679 43.0863 42.2323 43.8627 43.9208C44.6581 45.6513 41.8871 46.83 40.6937 47.2572C40.1591 47.4487 39.5844 47.6132 38.9872 47.7538C38.4564 47.5702 37.9032 47.7236 37.5053 48.039C34.7665 48.4521 31.7406 48.3041 29.4423 47.3061C27.7816 46.5849 26.3329 49.0326 28.0077 49.7602C31.1449 51.122 35.0546 51.3656 38.6298 50.7143C40.4491 51.4716 42.5741 51.1469 44.4672 50.497C45.0575 50.2943 45.5653 49.9076 46.1478 49.707C46.871 49.4579 47.6449 49.392 48.3793 49.1322C49.8549 48.6112 51.3432 48.1347 52.8197 47.6161C54.4086 47.058 55.9774 46.4208 57.5189 45.7431C57.8446 45.6005 58.1683 45.4526 58.4891 45.2992C58.8265 45.1352 59.1806 45.0375 59.5497 44.998C59.4091 45.3783 59.2484 45.7494 59.0536 46.1054H59.0536Z" fill="#21ACC0"/>
<path d="M8.54283 55.21C8.46715 55.1685 8.39098 55.1343 8.31432 55.1074C8.00866 54.9375 7.64342 54.8779 7.27037 54.978C6.15318 55.2783 5.62633 56.3686 5.81529 57.4536C5.97496 58.3721 6.86509 59.1709 7.81383 59.1592C8.87438 59.146 9.62633 58.3115 9.69176 57.2842C9.74547 56.4458 9.27867 55.6123 8.54283 55.21Z" fill="#21ACC0"/>
<path d="M27.477 21.209L32.9335 21.3086C32.8832 23.8706 32.8066 26.3711 32.7055 28.772C32.6396 30.3398 33.2255 31.2944 33.7289 31.8193C34.3764 32.4951 35.2641 32.8672 36.2279 32.8672C38.8114 32.8672 41.662 30.0508 41.7738 27.3882C41.8515 25.5435 41.9145 23.5903 41.9638 21.4731C41.9638 21.4731 48.9296 21.5991 48.9301 21.5991C51.6059 21.5991 52.8417 19.7676 52.8568 18.0664C52.8808 15.4229 50.0277 12.5752 47.3075 12.5264L42.0775 12.4307C42.0775 9.80859 42.0492 7.25097 41.9931 4.79834C41.932 2.09717 40.0658 0.867188 38.3578 0.867188C37.1015 0.867188 35.748 1.51514 34.6439 2.64453C33.9828 3.3208 32.8803 4.72607 32.9213 6.53564C32.9618 8.32519 32.9867 10.2173 32.9955 12.2646L25.8539 12.1357C23.1771 12.1357 21.9413 13.9663 21.9257 15.668C21.9018 18.3105 24.7548 21.1592 27.477 21.209Z" fill="#D98890"/>
</svg>
