<svg width="63" height="69" viewBox="0 0 63 69" fill="none" xmlns="http://www.w3.org/2000/svg">
<path d="M61.7087 7.47305C61.5947 6.84988 60.9423 6.48958 60.368 6.45228C55.4766 6.13478 50.4324 7.60314 45.679 9.81039C45.6532 9.80135 45.6322 9.78832 45.6052 9.78033C39.4675 7.96645 33.3398 10.4888 27.9226 13.346C22.6378 16.1334 18.0606 20.0779 14.4077 24.7932C13.8569 25.5041 13.8573 26.9484 15.0212 27.117C17.2231 27.4361 19.4208 27.6484 21.6327 27.7446C18.6767 30.9837 15.9443 34.4196 13.4437 37.8677C13.0255 38.4443 13.1586 39.008 13.5313 39.3917C13.5807 39.4813 13.6412 39.5695 13.7146 39.6551C13.8923 39.8624 14.0772 40.0621 14.2564 40.2678C12.084 41.3924 9.8636 42.6478 8.39483 44.6557C6.41351 47.3642 6.67433 50.6898 6.07183 53.8344C5.92007 54.6264 6.44306 55.6999 7.4125 55.5944C7.97055 55.5337 8.52866 55.4729 9.08671 55.4122C8.19812 58.8951 8.14803 62.4106 8.81745 66.0165C8.90145 66.4687 9.35229 66.8838 9.78855 66.9876C10.9334 67.2597 12.5536 66.8227 14.0455 66.1485C14.0722 66.727 14.2141 67.2684 14.5222 67.7031C15.6465 69.2894 18.4214 68.0242 19.7715 67.4637C25.0626 65.2667 29.8038 62.0625 33.1467 57.3738C33.6425 57.5854 34.2532 57.3839 34.6368 57.0479C37.3056 54.7101 39.9974 52.237 42.569 49.6222C43.1022 51.6307 43.6353 53.6392 44.1684 55.6478C44.4258 56.6177 45.7896 57.0513 46.4922 56.2613C50.8178 51.3982 54.4245 45.9673 57.0656 40.0105C59.4243 34.6906 61.7276 28.6717 59.6558 22.9294C61.5411 17.8679 62.6398 12.5606 61.7087 7.47307L61.7087 7.47305Z" fill="#D8FAFF"/>
<path d="M40.5278 14.6558C38.4973 13.6618 35.8866 13.9532 34.2962 15.6258C32.2682 17.759 32.467 21.3866 34.8224 23.1975C37.5133 25.2663 41.3722 23.7918 42.8353 20.9992C42.9411 20.8596 43.0253 20.6893 43.0758 20.4815C43.142 20.3136 43.1663 20.1583 43.1701 20.011C43.5278 17.8059 42.6289 15.6843 40.5278 14.6558V14.6558ZM35.9005 20.2178C35.3459 19.056 35.8141 17.5771 37.0131 17.0485C38.894 16.2193 40.8761 17.7569 40.3944 19.7422C39.697 21.5107 36.7861 22.073 35.9005 20.2178V20.2178Z" fill="#21ACC0"/>
<path d="M25.9409 26.4128C23.1027 26.9631 21.2605 29.7098 22.0976 32.5144C22.1324 32.6308 22.1788 32.7337 22.232 32.828C22.2345 32.8343 22.2352 32.8403 22.2378 32.8466C23.3461 35.4589 26.6274 36.6514 29.1416 35.2982C31.0651 34.263 32.1777 31.888 31.6227 29.7521C30.9829 27.2904 28.3647 25.9428 25.9409 26.4128V26.4128ZM27.9571 32.7733C26.7244 33.5497 25.379 32.846 24.7588 31.692C24.0537 28.9959 28.6186 28.0355 28.9738 30.6541C29.0839 31.4649 28.6405 32.3431 27.9571 32.7733Z" fill="#21ACC0"/>
<path d="M9.62159 50.3903C9.83009 51.1705 10.5942 51.484 11.332 51.3615C11.6704 51.3053 12.0015 51.2325 12.335 51.1656C12.23 51.7989 12.1782 52.4454 12.1753 53.1407C12.1719 54.0363 13.0684 54.7311 13.9355 54.4816C17.6006 53.4283 20.6997 51.4489 23.1411 48.5074C23.1616 48.4825 23.1743 48.4562 23.1929 48.4308C20.2969 46.3732 10.8608 37.1476 10.8608 37.1476C10.7959 37.1974 10.7334 37.2526 10.6777 37.3209C7.89111 40.7516 8.55567 46.3956 9.62159 50.3903V50.3903Z" fill="#D98890"/>
<path d="M17.0577 56.7457C15.8292 57.4352 14.5445 58.0797 13.2628 58.6632C13.1661 58.7076 11.3604 59.5538 10.732 59.6119C11.0938 59.4528 11.3321 58.1071 11.5181 57.8234C12.4063 56.4659 10.4551 55.0856 9.33405 56.1383C8.3819 57.0328 7.14948 57.358 5.94001 57.7614C5.80085 57.8073 5.55085 57.8746 5.29499 57.9464C4.88044 54.6237 5.23982 51.3912 6.35896 48.1813C6.63484 47.3898 5.8902 46.3263 5.01862 46.4215C4.34772 46.4943 3.6778 46.567 3.00739 46.6403C3.20124 44.5802 3.29206 42.4171 4.35651 40.694C5.61969 38.6486 7.97712 37.5309 10.0391 36.4723C10.0826 36.4498 10.1158 36.422 10.1553 36.3971L8.25642 34.2677C6.08406 35.3922 3.86384 36.6481 2.39509 38.6559C0.413639 41.3644 0.674387 44.6901 0.0718468 47.8346C-0.0800132 48.6266 0.443427 49.6998 1.41267 49.5944C1.97078 49.5338 2.52887 49.4728 3.08698 49.4122C2.19831 52.8951 2.14802 56.4108 2.81745 60.0167C2.90143 60.4689 3.35261 60.8839 3.78864 60.9874C4.93366 61.2599 6.55378 60.8229 8.04548 60.1485C8.07234 60.7272 8.21394 61.2682 8.52253 61.7032C9.64655 63.2897 12.4215 62.024 13.7716 61.4635C19.0626 59.2667 23.8038 56.0626 27.1466 51.3736L24.9049 49.7526C22.8604 52.6871 20.1705 54.9986 17.0577 56.7457V56.7457Z" fill="#D98890"/>
<path d="M55.709 1.47325C55.5948 0.849709 54.9424 0.489853 54.3682 0.452253C49.4766 0.134873 44.4327 1.60313 39.6792 3.81016C39.6534 3.80137 39.6324 3.78819 39.605 3.78037C33.4673 1.96641 27.3399 4.48887 21.9229 7.3458C16.6377 10.1334 12.0606 14.0777 8.40776 18.7931C7.85698 19.504 7.85747 20.9483 9.02104 21.1168C11.2232 21.4361 13.4209 21.6485 15.6329 21.7447C12.6768 24.984 9.94439 28.4195 7.44391 31.8678C7.02545 32.4444 7.15874 33.0079 7.5313 33.3917C7.58062 33.4811 7.64116 33.5694 7.71489 33.6549C7.89262 33.8624 8.0772 34.0621 8.2564 34.2677L10.1553 36.3971C10.3877 36.65 10.626 36.8971 10.8609 37.1476C10.8609 37.1476 20.2969 46.3731 23.1929 48.4308C23.7603 48.8751 24.3296 49.317 24.9063 49.7511L24.9048 49.7525L27.1465 51.3736C27.6426 51.5855 28.2535 51.3839 28.6368 51.0479C31.3057 48.71 33.9976 46.2369 36.5694 43.6222C37.1021 45.6305 37.6353 47.6392 38.1685 49.648C38.4258 50.6178 39.7896 51.0514 40.4923 50.2613C44.8179 45.398 48.4249 39.9674 51.0655 34.0103C53.4244 28.6905 55.7276 22.6715 53.6558 16.9293C55.5411 11.8678 56.6397 6.56064 55.709 1.47324V1.47325ZM12.0694 18.7164C14.8584 15.5299 18.0796 12.7779 21.7588 10.6197C25.8267 8.23301 30.6973 5.84043 35.5235 5.9503C32.7818 7.49327 30.1939 9.192 27.8584 10.8175C24.4336 13.2018 21.2164 15.9991 18.2095 19.0333C18.1783 19.0314 18.1509 19.024 18.1182 19.024C16.0879 19.0201 14.0782 18.921 12.0694 18.7164H12.0694ZM47.8843 34.3004C45.8072 38.63 43.2085 42.6559 40.1729 46.3585C39.7217 44.6578 39.2701 42.9571 38.8189 41.2565C42.4317 37.3321 45.7002 33.1012 48.168 28.525C49.3331 26.3648 50.5513 24.0504 51.6724 21.6393C51.7271 26.004 49.7374 30.4381 47.8843 34.3004ZM50.9136 15.8546C49.3663 20.1373 47.3956 24.3482 45.1211 28.2965C40.7554 35.8761 34.1216 42.4854 27.5738 48.2848C21.274 43.6705 15.545 38.3853 10.4053 32.5094C15.648 25.3878 22.0098 18.2677 29.2618 13.2188C35.9219 8.58163 44.7124 3.17782 53.1705 3.19736C53.6582 7.46591 52.3458 11.8897 50.9136 15.8546Z" fill="#21ACC0"/>
</svg>
